<?xml version="1.0" standalone="no"?>
<!DOCTYPE svg PUBLIC "-//W3C//DTD SVG 20010904//EN"
 "http://www.w3.org/TR/2001/REC-SVG-20010904/DTD/svg10.dtd">
<svg version="1.0" xmlns="http://www.w3.org/2000/svg"
 width="1280.000000pt" height="1243.000000pt" viewBox="0 0 1280.000000 1243.000000"
 preserveAspectRatio="xMidYMid meet">
<metadata>
Created by potrace 1.15, written by Peter Selinger 2001-2017
</metadata>
<g transform="translate(0.000000,1243.000000) scale(0.100000,-0.100000)"
fill="#000000" stroke="none">
<path d="M3147 12010 c-691 -67 -1300 -343 -1810 -820 -147 -137 -335 -370
-462 -570 -79 -124 -209 -387 -258 -520 -86 -230 -141 -458 -173 -705 -19
-149 -22 -477 -4 -620 5 -49 13 -112 16 -140 8 -73 52 -263 90 -393 183 -624
544 -1222 1197 -1983 293 -343 831 -890 1612 -1639 518 -498 1244 -1219 1444
-1435 783 -848 1232 -1521 1463 -2195 43 -127 106 -378 120 -480 12 -87 28
-121 28 -59 0 16 11 83 24 147 143 685 495 1330 1165 2132 309 370 922 998
1721 1766 217 208 534 515 705 680 1202 1167 1853 2025 2159 2847 64 170 144
475 160 607 45 367 39 670 -18 970 -97 501 -318 964 -649 1360 -355 425 -867
765 -1392 925 -708 215 -1441 169 -2113 -133 -794 -356 -1408 -1072 -1638
-1911 -61 -221 -104 -500 -104 -675 0 -103 -9 -146 -30 -146 -14 0 -18 13 -23
68 -4 37 -7 92 -7 122 0 85 -28 301 -56 440 -152 740 -600 1413 -1224 1842
-385 265 -806 429 -1280 498 -163 24 -513 35 -663 20z"/>
</g>
</svg>
